<svg width="15" height="21" viewBox="0 0 15 21" fill="none" xmlns="http://www.w3.org/2000/svg">
<path fill-rule="evenodd" clip-rule="evenodd" d="M4.16667 0.666748C3.70643 0.666748 3.33333 1.03985 3.33333 1.50008C3.33333 1.96031 3.70643 2.33341 4.16667 2.33341H10.8333C11.2936 2.33341 11.6667 1.96031 11.6667 1.50008C11.6667 1.03985 11.2936 0.666748 10.8333 0.666748H4.16667ZM0 4.83341C0 4.37318 0.3731 4.00008 0.833333 4.00008H3.33333H11.6667H14.1667C14.6268 4.00008 15 4.37318 15 4.83341C15 5.29365 14.6268 5.66675 14.1667 5.66675H13.3333V19.0001C13.3333 19.9206 12.5872 20.6667 11.6667 20.6667H3.33333C2.41287 20.6667 1.66667 19.9206 1.66667 19.0001V5.66675H0.833333C0.3731 5.66675 0 5.29365 0 4.83341ZM3.33333 5.66675H11.6667V19.0001H3.33333V5.66675Z" fill="#361C1C"/>
</svg>
