<svg width="21" height="21" viewBox="0 0 21 21" fill="none" xmlns="http://www.w3.org/2000/svg">
<path fill-rule="evenodd" clip-rule="evenodd" d="M16.7559 0.910831C16.4304 0.585387 15.9028 0.585387 15.5774 0.910831L3.19084 13.2973C3.04091 13.4473 2.92097 13.6244 2.83744 13.8193L0.400657 19.5051C0.266424 19.8184 0.336407 20.1817 0.577357 20.4227C0.818307 20.6636 1.18167 20.7336 1.49487 20.5994L7.18071 18.1626C7.37559 18.0791 7.55276 17.9591 7.70269 17.8092L20.0893 5.42266C20.4146 5.09723 20.4146 4.5696 20.0893 4.24416L16.7559 0.910831ZM4.36936 14.4759L16.1666 2.6786L18.3214 4.83341L6.52417 16.6307L4.03199 17.6987L3.30127 16.9681L4.36936 14.4759Z" fill="black"/>
</svg>
