<svg width="38" height="38" viewBox="0 0 38 38" fill="none" xmlns="http://www.w3.org/2000/svg">
<path fill-rule="evenodd" clip-rule="evenodd" d="M7.73328 1.33327C7.73328 0.744165 7.25571 0.266602 6.66661 0.266602C6.07749 0.266602 5.59995 0.744165 5.59995 1.33327V2.93328H3.99995C3.41083 2.93328 2.93328 3.41083 2.93328 3.99995C2.93328 4.58904 3.41083 5.06661 3.99995 5.06661H5.59995V6.66661C5.59995 7.25571 6.07749 7.73328 6.66661 7.73328C7.25571 7.73328 7.73328 7.25571 7.73328 6.66661V5.06661H9.33328C9.92237 5.06661 10.3999 4.58904 10.3999 3.99995C10.3999 3.41083 9.92237 2.93328 9.33328 2.93328H7.73328V1.33327ZM15.7333 9.33328C15.7333 8.74416 15.2557 8.26661 14.6666 8.26661C14.0775 8.26661 13.5999 8.74416 13.5999 9.33328V10.9333H11.9999C11.4108 10.9333 10.9333 11.4108 10.9333 11.9999C10.9333 12.589 11.4108 13.0666 11.9999 13.0666H13.5999V14.6666C13.5999 15.2557 14.0775 15.7333 14.6666 15.7333C15.2557 15.7333 15.7333 15.2557 15.7333 14.6666V13.0666H17.3333C17.9224 13.0666 18.3999 12.589 18.3999 11.9999C18.3999 11.4108 17.9224 10.9333 17.3333 10.9333H15.7333V9.33328ZM5.06661 17.3333C5.06661 16.7442 4.58904 16.2666 3.99995 16.2666C3.41083 16.2666 2.93328 16.7442 2.93328 17.3333V18.9333H1.33327C0.744165 18.9333 0.266602 19.4108 0.266602 19.9999C0.266602 20.589 0.744165 21.0666 1.33327 21.0666H2.93328V22.6666C2.93328 23.2557 3.41083 23.7333 3.99995 23.7333C4.58904 23.7333 5.06661 23.2557 5.06661 22.6666V21.0666H6.66661C7.25571 21.0666 7.73328 20.589 7.73328 19.9999C7.73328 19.4108 7.25571 18.9333 6.66661 18.9333H5.06661V17.3333ZM22.7842 2.61824L21.9898 2.5109C21.4207 2.44714 21.0851 3.108 21.4116 3.57851C21.787 4.11944 22.1328 4.68245 22.4468 5.2652C23.7834 7.74627 24.5419 10.5849 24.5419 13.6006C24.5419 22.3254 18.1933 29.5675 9.86365 30.9592C9.21963 31.0667 8.55968 31.1392 7.89355 31.1749C7.32168 31.2053 7.00611 31.876 7.40589 32.2859C7.58803 32.4728 7.77427 32.6555 7.96445 32.8341L8.15688 33.012L8.85021 33.612L9.35157 34.0085L9.67456 34.2488L10.1731 34.5979L10.6421 34.904C10.9647 35.1069 11.2943 35.3 11.6309 35.4824L12.3332 35.8432L13.0281 36.1619L13.8357 36.4875L14.4845 36.7163C14.8417 36.8341 15.204 36.9411 15.5695 37.036C15.847 37.108 16.1271 37.1736 16.4108 37.2325C16.7465 37.3021 17.0857 37.3624 17.4278 37.4128L18.2731 37.516L18.9849 37.5712C19.3237 37.5907 19.665 37.6005 20.0086 37.6005C29.7288 37.6005 37.6085 29.7208 37.6085 20.0006C37.6085 19.3345 37.5715 18.677 37.4995 18.0302L37.4013 17.2909C37.3093 16.6955 37.1875 16.1101 37.0376 15.5371C36.8568 14.8456 36.6352 14.1706 36.3757 13.5168L36.0744 12.8035L35.8685 12.3611L35.6709 11.9644C35.2475 11.1406 34.7608 10.3545 34.2165 9.61128L33.8085 9.07605L33.2781 8.43819L32.8419 7.95629L32.5229 7.62536L32.0947 7.20656L31.5024 6.67157L30.6467 5.97843L29.9955 5.50661L29.2165 4.99856L28.3589 4.50384L27.4861 4.06341L27.1835 3.92469L26.5463 3.65493L25.8078 3.3784L25.1351 3.15893L24.2687 2.91971L23.5626 2.75963L22.7842 2.61824ZM27.7419 14.1339C27.7419 11.4023 27.2005 8.79544 26.2198 6.41611C31.3661 8.7732 34.9419 13.9697 34.9419 20.0006C34.9419 28.248 28.256 34.9339 20.0086 34.9339C17.6972 34.9339 15.5093 34.4096 13.5561 33.4725C17.4451 32.2509 20.8288 29.8885 23.3153 26.7776C23.679 27.2757 24.2674 27.5992 24.9314 27.5992C26.036 27.5992 26.9315 26.7037 26.9315 25.5992C26.9315 24.6468 26.2657 23.8499 25.3743 23.6484C25.5398 23.3377 25.6974 23.0222 25.8469 22.7022C26.3562 23.0177 26.9568 23.1998 27.6 23.1998C29.4408 23.1998 30.9333 21.7074 30.9333 19.8665C30.9333 18.026 29.4416 16.534 27.6013 16.5331C27.6941 15.7463 27.7419 14.9457 27.7419 14.1339Z" fill="#E5E5E5"/>
</svg>
