<svg width="39" height="40" viewBox="0 0 39 40" fill="none" xmlns="http://www.w3.org/2000/svg">
<path fill-rule="evenodd" clip-rule="evenodd" d="M19.5 0C20.218 0 20.8 0.596955 20.8 1.33333V6.66667C20.8 7.40304 20.218 8 19.5 8C18.782 8 18.2 7.40304 18.2 6.66667V1.33333C18.2 0.596955 18.782 0 19.5 0ZM5.71142 5.85787C6.2191 5.33717 7.0422 5.33717 7.54991 5.85787L11.2269 9.62909C11.7345 10.1498 11.7345 10.994 11.2269 11.5147C10.7192 12.0354 9.89604 12.0354 9.38837 11.5147L5.71142 7.74349C5.20374 7.22277 5.20374 6.37856 5.71142 5.85787ZM1.3 18.6667C0.582031 18.6667 0 19.2636 0 20C0 20.7364 0.582031 21.3333 1.3 21.3333H6.5C7.21796 21.3333 7.8 20.7364 7.8 20C7.8 19.2636 7.21796 18.6667 6.5 18.6667H1.3ZM5.71142 34.1421C5.20374 33.6213 5.20374 32.7773 5.71142 32.2565L9.38837 28.4853C9.89604 27.9645 10.7192 27.9645 11.2269 28.4853C11.7345 29.0059 11.7345 29.8501 11.2269 30.3709L7.54991 34.1421C7.0422 34.6629 6.2191 34.6629 5.71142 34.1421ZM32.5 18.6667C31.7821 18.6667 31.2 19.2636 31.2 20C31.2 20.7364 31.7821 21.3333 32.5 21.3333H37.7C38.4179 21.3333 39 20.7364 39 20C39 19.2636 38.4179 18.6667 37.7 18.6667H32.5ZM27.7732 11.5147C27.2654 10.994 27.2654 10.1498 27.7732 9.62909L31.4501 5.85787C31.9579 5.33717 32.7808 5.33717 33.2886 5.85787C33.7964 6.37856 33.7964 7.22277 33.2886 7.74349L29.6117 11.5147C29.1039 12.0354 28.2807 12.0354 27.7732 11.5147ZM20.8 33.3333C20.8 32.5971 20.218 32 19.5 32C18.782 32 18.2 32.5971 18.2 33.3333V38.6667C18.2 39.4029 18.782 40 19.5 40C20.218 40 20.8 39.4029 20.8 38.6667V33.3333ZM27.7732 28.4853C28.2807 27.9645 29.1039 27.9645 29.6117 28.4853L33.2886 32.2565C33.7964 32.7773 33.7964 33.6213 33.2886 34.1421C32.7808 34.6629 31.9579 34.6629 31.4501 34.1421L27.7732 30.3709C27.2654 29.8501 27.2654 29.0059 27.7732 28.4853ZM14.3 20C14.3 17.0545 16.6281 14.6667 19.5 14.6667C22.3719 14.6667 24.7 17.0545 24.7 20C24.7 22.9455 22.3719 25.3333 19.5 25.3333C16.6281 25.3333 14.3 22.9455 14.3 20ZM19.5 12C15.1922 12 11.7 15.5817 11.7 20C11.7 24.4183 15.1922 28 19.5 28C23.8078 28 27.3 24.4183 27.3 20C27.3 15.5817 23.8078 12 19.5 12Z" fill="black"/>
</svg>
